<svg id="Layer_1" data-name="Layer 1" xmlns="http://www.w3.org/2000/svg" viewBox="0 0 350 150"><defs><style>.cls-1{fill:#faaa50;}.cls-2{fill:#22346a;}.cls-3{fill:#b7c7e6;}.cls-4{fill:#323742;}.cls-5{font-size:36px;fill:#2a2d35;font-family:Montserrat-Bold, Montserrat;font-weight:700;}.cls-6{letter-spacing:0.01em;}.cls-7{letter-spacing:-0.01em;}.cls-8{letter-spacing:-0.02em;}.cls-9{letter-spacing:0em;}.cls-10{letter-spacing:-0.02em;}</style></defs><path class="cls-1" d="M65.75,87.26a5.17,5.17,0,0,1-1,.1,4.76,4.76,0,0,1,0-9.51,4.64,4.64,0,0,1,1,.11,21.23,21.23,0,0,1,2-3.74,8.81,8.81,0,0,0-3-.53A8.95,8.95,0,1,0,67.85,91,20.88,20.88,0,0,1,65.75,87.26Z"/><path class="cls-2" d="M69.76,39.94V33.39h6.8a2.16,2.16,0,0,0,2.15-2.15V26.59a2.16,2.16,0,0,0-2.15-2.15H54a2.16,2.16,0,0,0-2.15,2.15v4.65A2.16,2.16,0,0,0,54,33.39h6.8v6.44a42.82,42.82,0,0,0-23.07,9.39l-5.51-5.51a2.15,2.15,0,0,0-3,0L25.9,47a2.15,2.15,0,0,0,0,3l5.51,5.51a43,43,0,1,0,38.35-15.6Zm18.09,70a35.8,35.8,0,1,1-.31-55c1.55,1.27-13.17,9.53-19.72,19.23a21.23,21.23,0,0,0-2,3.74,11.41,11.41,0,0,0,0,9.3A20.88,20.88,0,0,0,67.85,91C74.48,100.65,89.37,108.69,87.85,110Z"/><ellipse class="cls-3" cx="56.47" cy="59.98" rx="2.77" ry="8.3" transform="translate(-22.42 36.27) rotate(-30)"/><ellipse class="cls-3" cx="66.12" cy="57.57" rx="2.77" ry="8.3"/><ellipse class="cls-4" cx="65.72" cy="108.01" rx="2.77" ry="8.3"/><ellipse class="cls-3" cx="43.64" cy="73.74" rx="2.77" ry="8.3" transform="translate(-38.88 96.8) rotate(-75)"/><ellipse class="cls-3" cx="48.76" cy="65.21" rx="2.77" ry="8.3" transform="translate(-31.83 53.58) rotate(-45)"/><ellipse class="cls-4" cx="43.81" cy="92.58" rx="8.3" ry="2.77" transform="translate(-40.42 34.31) rotate(-30)"/><ellipse class="cls-4" cx="41.4" cy="82.94" rx="8.3" ry="2.77"/><ellipse class="cls-4" cx="57.56" cy="105.41" rx="8.3" ry="2.77" transform="translate(-59.16 133.73) rotate(-75)"/><ellipse class="cls-4" cx="49.04" cy="100.3" rx="8.3" ry="2.77" transform="translate(-56.56 64.05) rotate(-45)"/><rect class="cls-3" x="83.65" y="69.83" width="54.23" height="5.15" rx="2.57"/><rect class="cls-3" x="69.72" y="80.03" width="30.88" height="5.15" rx="2.57"/><rect class="cls-3" x="105.69" y="80.03" width="12.87" height="5.15" rx="2.57"/><rect class="cls-3" x="128.68" y="90.24" width="12.87" height="5.15" rx="2.57"/><rect class="cls-3" x="94.34" y="90.24" width="25.73" height="5.15" rx="2.57"/><rect class="cls-3" x="124.17" y="79.69" width="25.82" height="5.89" rx="2.94"/><text class="cls-5" transform="translate(150 61.51)">I<tspan class="cls-6" x="11.81" y="0">n</tspan><tspan x="36.9" y="0">c</tspan><tspan class="cls-7" x="58.17" y="0">r</tspan><tspan x="73.37" y="0">edible </tspan><tspan class="cls-8" x="0" y="48">C</tspan><tspan class="cls-9" x="25.7" y="48">oun</tspan><tspan class="cls-10" x="98.89" y="48">t</tspan><tspan x="113.94" y="48">er</tspan></text></svg>