<svg id="Layer_1" data-name="Layer 1" xmlns="http://www.w3.org/2000/svg" viewBox="0 0 200 200"><defs><style>.cls-1{fill:#faaa50;}.cls-2{fill:#22346a;}.cls-3{fill:#b7c7e6;}.cls-4{fill:#323742;}</style></defs><path class="cls-1" d="M73.34,116.21a6.16,6.16,0,0,1-1.3.14,6.29,6.29,0,0,1,0-12.57,5.83,5.83,0,0,1,1.33.14,27.05,27.05,0,0,1,2.7-5,11.66,11.66,0,0,0-4-.71,11.84,11.84,0,1,0,4.08,23A27.08,27.08,0,0,1,73.34,116.21Z"/><path class="cls-2" d="M78.64,53.62V45h9a2.85,2.85,0,0,0,2.84-2.84V36a2.84,2.84,0,0,0-2.84-2.84H57.81A2.84,2.84,0,0,0,55,36v6.15A2.84,2.84,0,0,0,57.81,45h9v8.53A56.46,56.46,0,0,0,36.29,65.9L29,58.6a2.85,2.85,0,0,0-4,0L20.62,63a2.86,2.86,0,0,0,0,4l7.29,7.29A56.83,56.83,0,1,0,78.64,53.62Zm23.93,92.64a47.35,47.35,0,1,1-.41-72.74c2,1.69-17.42,12.62-26.09,25.45a27.05,27.05,0,0,0-2.7,5,15,15,0,0,0,0,12.29,27.08,27.08,0,0,0,2.78,5C84.88,133.94,104.58,144.57,102.57,146.26Z"/><ellipse class="cls-3" cx="61.06" cy="80.13" rx="3.66" ry="10.99" transform="translate(-31.88 41.27) rotate(-30)"/><ellipse class="cls-3" cx="73.82" cy="76.94" rx="3.66" ry="10.99"/><ellipse class="cls-4" cx="73.3" cy="143.66" rx="3.66" ry="10.99"/><ellipse class="cls-3" cx="44.09" cy="98.33" rx="3.66" ry="10.99" transform="matrix(0.26, -0.97, 0.97, 0.26, -62.3, 115.46)"/><ellipse class="cls-3" cx="50.86" cy="87.05" rx="3.66" ry="10.99" transform="translate(-46.66 61.46) rotate(-45)"/><ellipse class="cls-4" cx="44.31" cy="123.26" rx="10.99" ry="3.66" transform="translate(-55.69 38.67) rotate(-30)"/><ellipse class="cls-4" cx="41.12" cy="110.5" rx="10.99" ry="3.66"/><ellipse class="cls-4" cx="62.51" cy="140.24" rx="10.99" ry="3.66" transform="translate(-89.13 164.32) rotate(-75)"/><ellipse class="cls-4" cx="51.23" cy="133.47" rx="10.99" ry="3.66" transform="translate(-79.37 75.32) rotate(-45)"/><rect class="cls-3" x="97.02" y="93.16" width="71.74" height="6.81" rx="3.4"/><rect class="cls-3" x="78.59" y="106.66" width="40.85" height="6.81" rx="3.4"/><rect class="cls-3" x="126.17" y="106.66" width="17.02" height="6.81" rx="3.4"/><rect class="cls-3" x="156.59" y="120.16" width="17.02" height="6.81" rx="3.4"/><rect class="cls-3" x="111.15" y="120.16" width="34.04" height="6.81" rx="3.4"/><rect class="cls-3" x="150.62" y="106.21" width="34.16" height="7.79" rx="3.89"/></svg>