<svg width="24" height="24" viewBox="0 0 24 24" fill="none" xmlns="http://www.w3.org/2000/svg">
<path d="M20.67 4.92001C20.8687 4.70675 20.9769 4.42468 20.9718 4.13323C20.9666 3.84178 20.8486 3.5637 20.6424 3.35758C20.4363 3.15146 20.1582 3.03339 19.8668 3.02825C19.5753 3.02311 19.2933 3.13129 19.08 3.33001L15.75 6.66001V4.87501C15.75 4.57665 15.6315 4.2905 15.4205 4.07952C15.2095 3.86854 14.9234 3.75001 14.625 3.75001C14.3266 3.75001 14.0405 3.86854 13.8295 4.07952C13.6185 4.2905 13.5 4.57665 13.5 4.87501V9.22501C13.5 9.25051 13.5 9.27751 13.503 9.30301C13.4924 9.46256 13.516 9.62253 13.5722 9.7722C13.6285 9.92188 13.7161 10.0578 13.8292 10.1709C13.9422 10.2839 14.0781 10.3715 14.2278 10.4278C14.3775 10.484 14.5375 10.5076 14.697 10.497C14.723 10.4988 14.749 10.4998 14.775 10.5H19.125C19.4234 10.5 19.7095 10.3815 19.9205 10.1705C20.1315 9.95953 20.25 9.67338 20.25 9.37501C20.25 9.07665 20.1315 8.7905 19.9205 8.57952C19.7095 8.36854 19.4234 8.25001 19.125 8.25001H17.34L20.67 4.92001Z" fill="black"/>
<path d="M9.37501 20.25C9.07665 20.25 8.7905 20.1315 8.57952 19.9205C8.36854 19.7095 8.25001 19.4234 8.25001 19.125V17.34L4.92001 20.67C4.70675 20.8687 4.42468 20.9769 4.13323 20.9718C3.84178 20.9666 3.5637 20.8486 3.35758 20.6424C3.15146 20.4363 3.03339 20.1582 3.02825 19.8668C3.02311 19.5753 3.13129 19.2933 3.33001 19.08L6.66001 15.75H4.87501C4.57665 15.75 4.2905 15.6315 4.07952 15.4205C3.86854 15.2095 3.75001 14.9234 3.75001 14.625C3.75001 14.3266 3.86854 14.0405 4.07952 13.8295C4.2905 13.6185 4.57665 13.5 4.87501 13.5H9.22501C9.25104 13.5002 9.27705 13.5012 9.30301 13.503C9.46256 13.4924 9.62253 13.516 9.7722 13.5722C9.92188 13.6285 10.0578 13.7161 10.1709 13.8292C10.2839 13.9422 10.3715 14.0781 10.4278 14.2278C10.484 14.3775 10.5076 14.5375 10.497 14.697C10.4988 14.723 10.4998 14.749 10.5 14.775V19.125C10.5 19.4234 10.3815 19.7095 10.1705 19.9205C9.95953 20.1315 9.67338 20.25 9.37501 20.25Z" fill="black"/>
</svg>
