<svg width="24" height="24" viewBox="0 0 24 24" fill="none" xmlns="http://www.w3.org/2000/svg">
<path d="M9 12C9 12.5933 9.17595 13.1734 9.50559 13.6667C9.83524 14.1601 10.3038 14.5446 10.8519 14.7716C11.4001 14.9987 12.0033 15.0581 12.5853 14.9424C13.1672 14.8266 13.7018 14.5409 14.1213 14.1213C14.5409 13.7018 14.8266 13.1672 14.9424 12.5853C15.0581 12.0033 14.9987 11.4001 14.7716 10.8519C14.5446 10.3038 14.1601 9.83524 13.6667 9.50559C13.1734 9.17595 12.5933 9 12 9C11.2044 9 10.4413 9.31607 9.87868 9.87868C9.31607 10.4413 9 11.2044 9 12ZM13.5 12C13.5 12.2967 13.412 12.5867 13.2472 12.8334C13.0824 13.08 12.8481 13.2723 12.574 13.3858C12.2999 13.4994 11.9983 13.5291 11.7074 13.4712C11.4164 13.4133 11.1491 13.2704 10.9393 13.0607C10.7296 12.8509 10.5867 12.5836 10.5288 12.2926C10.4709 12.0017 10.5006 11.7001 10.6142 11.426C10.7277 11.1519 10.92 10.9176 11.1666 10.7528C11.4133 10.588 11.7033 10.5 12 10.5C12.3978 10.5 12.7794 10.658 13.0607 10.9393C13.342 11.2206 13.5 11.6022 13.5 12Z" fill="black"/>
<path d="M12 20.3776L7.8 16.1851L6.75 17.2501L12 22.5001L17.25 17.2501L16.1925 16.1926L12 20.3776Z" fill="black"/>
<path d="M12 3.6225L16.185 7.8L17.25 6.75L12 1.5L6.75 6.75L7.8075 7.8075L12 3.6225Z" fill="black"/>
</svg>
