<svg width="24" height="24" viewBox="0 0 24 24" fill="none" xmlns="http://www.w3.org/2000/svg">
<path d="M10.5 18C9.01664 18 7.5666 17.5601 6.33323 16.736C5.09986 15.9119 4.13856 14.7406 3.57091 13.3701C3.00325 11.9997 2.85473 10.4917 3.14411 9.03683C3.4335 7.58197 4.14781 6.2456 5.1967 5.1967C6.2456 4.14781 7.58197 3.4335 9.03683 3.14411C10.4917 2.85473 11.9997 3.00325 13.3701 3.57091C14.7406 4.13856 15.9119 5.09986 16.736 6.33323C17.5601 7.5666 18 9.01664 18 10.5H19.5C19.5 8.71997 18.9722 6.97991 17.9832 5.49987C16.9943 4.01983 15.5887 2.86628 13.9442 2.18509C12.2996 1.5039 10.49 1.32567 8.74419 1.67294C6.99836 2.0202 5.39472 2.87737 4.13604 4.13604C2.87737 5.39472 2.0202 6.99836 1.67294 8.74419C1.32567 10.49 1.5039 12.2996 2.18509 13.9442C2.86628 15.5887 4.01983 16.9943 5.49987 17.9832C6.97991 18.9722 8.71997 19.5 10.5 19.5V18Z" fill="black"/>
<path d="M9 11.6925L7.0575 9.75L6 10.8075L9 13.8075L14.25 8.5575L13.1925 7.5L9 11.6925Z" fill="black"/>
<path d="M22.5 18C22.5 17.11 22.2361 16.24 21.7416 15.4999C21.2471 14.7599 20.5443 14.1831 19.7221 13.8425C18.8998 13.5019 17.995 13.4128 17.1221 13.5865C16.2492 13.7601 15.4474 14.1887 14.818 14.818C14.1887 15.4474 13.7601 16.2492 13.5865 17.1221C13.4128 17.995 13.5019 18.8998 13.8425 19.7221C14.1831 20.5443 14.7599 21.2471 15.4999 21.7416C16.24 22.2361 17.11 22.5 18 22.5C19.1931 22.4986 20.3368 22.0241 21.1804 21.1804C22.0241 20.3368 22.4986 19.1931 22.5 18ZM21 18C20.9972 18.5338 20.8503 19.057 20.5748 19.5143L16.4858 15.4253C16.943 15.1498 17.4662 15.0028 18 15C18.7953 15.001 19.5578 15.3174 20.1202 15.8798C20.6826 16.4422 20.999 17.2047 21 18ZM15 18C15.0028 17.4662 15.1497 16.943 15.4253 16.4858L19.5143 20.5748C19.057 20.8502 18.5338 20.9972 18 21C17.2047 20.999 16.4422 20.6826 15.8798 20.1202C15.3174 19.5578 15.001 18.7953 15 18Z" fill="black"/>
</svg>
