<svg width="24" height="24" viewBox="0 0 24 24" fill="none" xmlns="http://www.w3.org/2000/svg">
<path d="M22.5 18C22.5 17.11 22.2361 16.24 21.7416 15.4999C21.2471 14.7599 20.5443 14.1831 19.7221 13.8425C18.8998 13.5019 17.995 13.4128 17.1221 13.5865C16.2492 13.7601 15.4474 14.1887 14.818 14.818C14.1887 15.4474 13.7601 16.2492 13.5865 17.1221C13.4128 17.995 13.5019 18.8998 13.8425 19.7221C14.1831 20.5443 14.7599 21.2471 15.4999 21.7416C16.24 22.2361 17.11 22.5 18 22.5C19.1931 22.4986 20.3368 22.0241 21.1804 21.1804C22.0241 20.3368 22.4986 19.1931 22.5 18ZM21 18C20.9972 18.5338 20.8503 19.057 20.5748 19.5143L16.4858 15.4253C16.943 15.1498 17.4662 15.0028 18 15C18.7953 15.001 19.5578 15.3174 20.1202 15.8798C20.6826 16.4422 20.999 17.2047 21 18ZM15 18C15.0028 17.4662 15.1497 16.943 15.4253 16.4858L19.5143 20.5748C19.057 20.8502 18.5338 20.9972 18 21C17.2047 20.999 16.4422 20.6826 15.8798 20.1202C15.3174 19.5578 15.001 18.7953 15 18Z" fill="black"/>
<path d="M10.5 1.50003C9.25027 1.49279 8.01272 1.74591 6.8662 2.24327C5.71967 2.74063 4.6893 3.47132 3.8407 4.3888C2.99211 5.30629 2.3439 6.39045 1.93736 7.57224C1.53082 8.75402 1.37487 10.0075 1.47943 11.2529C1.584 12.4983 1.94679 13.7082 2.5447 14.8057C3.14261 15.9031 3.96253 16.864 4.95223 17.6271C5.94194 18.3903 7.07973 18.9389 8.29314 19.2381C9.50655 19.5373 10.769 19.5806 12 19.365V18C12 16.4087 12.6321 14.8826 13.7574 13.7574C14.8826 12.6322 16.4087 12 18 12H19.365C19.5918 10.7091 19.5323 9.38404 19.1908 8.11858C18.8492 6.85313 18.2339 5.67813 17.3883 4.67661C16.5428 3.67508 15.4876 2.87148 14.2973 2.32258C13.107 1.77369 11.8107 1.49289 10.5 1.50003ZM9 13.9425L6 10.9425L7.1925 9.75003L9 11.5575L13.0575 7.50003L14.25 8.69253L9 13.9425Z" fill="black"/>
</svg>
