<svg width="24" height="24" viewBox="0 0 24 24" fill="none" xmlns="http://www.w3.org/2000/svg">
<path d="M6.5225 8C6.775 5.1965 9.131 3 12 3C14.869 3 17.225 5.1965 17.4775 8H17.625C18.1711 7.99997 18.7111 8.11538 19.2095 8.33868C19.708 8.56197 20.1535 8.88811 20.5171 9.29569C20.8806 9.70327 21.1539 10.1831 21.319 10.7037C21.4841 11.2243 21.5372 11.7739 21.475 12.3165C21.0868 11.8554 20.6367 11.4503 20.1375 11.1125C19.9738 10.5737 19.6412 10.1018 19.1888 9.76642C18.7364 9.43106 18.1881 9.25001 17.625 9.25H16.875C16.53 9.25 16.25 8.97 16.25 8.625V8.5C16.25 7.37283 15.8022 6.29183 15.0052 5.4948C14.2082 4.69777 13.1272 4.25 12 4.25C10.8728 4.25 9.79183 4.69777 8.9948 5.4948C8.19777 6.29183 7.75 7.37283 7.75 8.5V8.625C7.75 8.97 7.47 9.25 7.125 9.25H6.375C5.67881 9.25 5.01113 9.52656 4.51884 10.0188C4.02656 10.5111 3.75 11.1788 3.75 11.875C3.75 12.5712 4.02656 13.2389 4.51884 13.7312C5.01113 14.2234 5.67881 14.5 6.375 14.5H10.3135C10.1835 14.901 10.0925 15.319 10.043 15.75H6.375C5.34729 15.75 4.36166 15.3417 3.63496 14.615C2.90826 13.8883 2.5 12.9027 2.5 11.875C2.5 10.8473 2.90826 9.86166 3.63496 9.13496C4.36166 8.40826 5.34729 8 6.375 8H6.5225ZM22 16.5C22 19.5375 19.5375 22 16.5 22C13.4625 22 11 19.5375 11 16.5C11 13.4625 13.4625 11 16.5 11C19.5375 11 22 13.4625 22 16.5ZM19.1465 14.1465L15.5 17.793L13.8535 16.1465C13.7592 16.0554 13.6329 16.005 13.5018 16.0062C13.3707 16.0073 13.2453 16.0599 13.1526 16.1526C13.0599 16.2453 13.0073 16.3707 13.0062 16.5018C13.005 16.6329 13.0554 16.7592 13.1465 16.8535L15.1465 18.8535C15.2403 18.9472 15.3674 18.9999 15.5 18.9999C15.6326 18.9999 15.7597 18.9472 15.8535 18.8535L19.8535 14.8535C19.9446 14.7592 19.995 14.6329 19.9938 14.5018C19.9927 14.3707 19.9401 14.2453 19.8474 14.1526C19.7547 14.0599 19.6293 14.0073 19.4982 14.0062C19.3671 14.005 19.2408 14.0554 19.1465 14.1465Z" fill="black"/>
</svg>
