<svg width="24" height="24" viewBox="0 0 24 24" fill="none" xmlns="http://www.w3.org/2000/svg">
<path d="M6.087 7.75005C6.32369 6.42023 7.02082 5.21611 8.05623 4.34872C9.09164 3.48133 10.3993 3.00598 11.75 3.00598C13.1007 3.00598 14.4084 3.48133 15.4438 4.34872C16.4792 5.21611 17.1763 6.42023 17.413 7.75005H17.5C18.0719 7.75001 18.6373 7.87262 19.1578 8.10963C19.6783 8.34663 20.142 8.6925 20.5175 9.12392C20.893 9.55534 21.1716 10.0623 21.3345 10.6105C21.4975 11.1588 21.5409 11.7356 21.462 12.302C21.0067 11.7642 20.4674 11.3036 19.865 10.938C19.6957 10.4454 19.3768 10.018 18.9528 9.71537C18.5288 9.41276 18.0209 9.25008 17.5 9.25005H16.744C16.5513 9.25028 16.366 9.17636 16.2263 9.04362C16.0867 8.91087 16.0035 8.72948 15.994 8.53705C15.9386 7.4487 15.4672 6.42324 14.6773 5.67252C13.8874 4.9218 12.8393 4.50319 11.7495 4.50319C10.6597 4.50319 9.61164 4.9218 8.82171 5.67252C8.03179 6.42324 7.56042 7.4487 7.505 8.53705C7.4955 8.7293 7.41245 8.91055 7.27303 9.04327C7.13361 9.17599 6.94849 9.25002 6.756 9.25005H6C5.33696 9.25005 4.70107 9.51344 4.23223 9.98228C3.76339 10.4511 3.5 11.087 3.5 11.75C3.5 12.4131 3.76339 13.049 4.23223 13.5178C4.70107 13.9867 5.33696 14.25 6 14.25H10.4C10.2215 14.734 10.1017 15.2376 10.043 15.75H6C4.93913 15.75 3.92172 15.3286 3.17157 14.5785C2.42143 13.8283 2 12.8109 2 11.75C2 10.6892 2.42143 9.67176 3.17157 8.92162C3.92172 8.17147 4.93913 7.75005 6 7.75005H6.087ZM11 16.5C11 17.9587 11.5795 19.3577 12.6109 20.3891C13.6424 21.4206 15.0413 22 16.5 22C17.9587 22 19.3576 21.4206 20.3891 20.3891C21.4205 19.3577 22 17.9587 22 16.5C22 15.0414 21.4205 13.6424 20.3891 12.611C19.3576 11.5795 17.9587 11 16.5 11C15.0413 11 13.6424 11.5795 12.6109 12.611C11.5795 13.6424 11 15.0414 11 16.5ZM19.5 13C19.6326 13 19.7598 13.0527 19.8536 13.1465C19.9473 13.2403 20 13.3674 20 13.5V15.5C20 15.6327 19.9473 15.7598 19.8536 15.8536C19.7598 15.9474 19.6326 16 19.5 16H17.5C17.3674 16 17.2402 15.9474 17.1464 15.8536C17.0527 15.7598 17 15.6327 17 15.5C17 15.3674 17.0527 15.2403 17.1464 15.1465C17.2402 15.0527 17.3674 15 17.5 15H18.5C18.2673 14.6893 17.9654 14.4371 17.6182 14.2636C17.2711 14.09 16.8882 13.9997 16.5 14C15.667 14 14.928 14.407 14.473 15.036C14.3941 15.1402 14.2775 15.2092 14.1482 15.2285C14.019 15.2477 13.8874 15.2156 13.7815 15.1391C13.6756 15.0625 13.604 14.9475 13.5818 14.8187C13.5597 14.6899 13.5888 14.5576 13.663 14.45C13.9872 14.0009 14.4135 13.6352 14.9067 13.3831C15.4 13.131 15.9461 12.9997 16.5 13C17.48 13 18.365 13.403 19 14.05V13.5C19 13.3674 19.0527 13.2403 19.1464 13.1465C19.2402 13.0527 19.3674 13 19.5 13ZM14 18.95V19.5C14 19.6327 13.9473 19.7598 13.8536 19.8536C13.7598 19.9474 13.6326 20 13.5 20C13.3674 20 13.2402 19.9474 13.1464 19.8536C13.0527 19.7598 13 19.6327 13 19.5V17.5C13 17.3674 13.0527 17.2403 13.1464 17.1465C13.2402 17.0527 13.3674 17 13.5 17H15.5C15.6326 17 15.7598 17.0527 15.8536 17.1465C15.9473 17.2403 16 17.3674 16 17.5C16 17.6327 15.9473 17.7598 15.8536 17.8536C15.7598 17.9474 15.6326 18 15.5 18H14.5C14.956 18.608 15.683 19 16.5 19C17.266 19 17.952 18.656 18.411 18.112C18.4973 18.0133 18.6189 17.9523 18.7497 17.9424C18.8805 17.9324 19.0099 17.9743 19.1102 18.0589C19.2104 18.1435 19.2733 18.2641 19.2855 18.3947C19.2976 18.5253 19.2579 18.6554 19.175 18.757C18.8468 19.1468 18.4372 19.46 17.9751 19.6748C17.513 19.8895 17.0096 20.0005 16.5 20C16.0343 20.0007 15.5732 19.9081 15.1439 19.7278C14.7145 19.5474 14.3256 19.283 14 18.95Z" fill="black"/>
</svg>
