<svg width="24" height="24" viewBox="0 0 24 24" fill="none" xmlns="http://www.w3.org/2000/svg">
<path d="M8.54925 5.256C7.82925 6.1365 7.5 7.275 7.5 8.25C7.5 8.44891 7.42098 8.63968 7.28033 8.78033C7.13968 8.92098 6.94891 9 6.75 9C4.032 9 3 10.896 3 12C3 12.6412 3.162 13.3762 3.6585 13.9432C4.13625 14.4915 5.031 15 6.75 15H10.389C10.2502 15.48 10.164 15.9825 10.1355 16.5H6.75C4.71975 16.5 3.36375 15.885 2.529 14.9318C1.713 13.9988 1.5 12.8588 1.5 12C1.5 10.233 2.9475 7.8525 6.04275 7.53525C6.17175 6.44325 6.59775 5.27325 7.38825 4.3065C8.3745 3.1005 9.90075 2.25 12 2.25C13.275 2.25 14.7615 2.6715 15.9435 3.63825C17.0092 4.5105 17.7983 5.8035 17.9662 7.54275C18.9998 7.6665 20.0018 8.055 20.802 8.67375C21.7973 9.44175 22.5 10.5855 22.5 12C22.5 12.3472 22.47 12.684 22.407 13.0065C22.0029 12.4298 21.5115 11.9194 20.9505 11.4937C20.8207 10.8427 20.4398 10.2885 19.8855 9.861C19.1828 9.318 18.222 9 17.25 9C17.0511 9 16.8603 8.92098 16.7197 8.78033C16.579 8.63968 16.5 8.44891 16.5 8.25C16.5 6.6 15.8505 5.5005 14.994 4.79925C14.1135 4.07925 12.975 3.75 12 3.75C10.35 3.75 9.2505 4.3995 8.54925 5.256ZM16.875 11.25C18.3668 11.25 19.7976 11.8426 20.8525 12.8975C21.9074 13.9524 22.5 15.3832 22.5 16.875C22.5 18.3668 21.9074 19.7976 20.8525 20.8525C19.7976 21.9074 18.3668 22.5 16.875 22.5C15.3832 22.5 13.9524 21.9074 12.8975 20.8525C11.8426 19.7976 11.25 18.3668 11.25 16.875C11.25 15.3832 11.8426 13.9524 12.8975 12.8975C13.9524 11.8426 15.3832 11.25 16.875 11.25ZM14.835 19.71L16.875 17.67L18.915 19.71C18.9665 19.7653 19.0286 19.8096 19.0976 19.8403C19.1666 19.8711 19.2411 19.8876 19.3166 19.8889C19.3921 19.8903 19.4672 19.8764 19.5372 19.8481C19.6072 19.8198 19.6709 19.7777 19.7243 19.7243C19.7777 19.6709 19.8198 19.6072 19.8481 19.5372C19.8764 19.4672 19.8903 19.3921 19.8889 19.3166C19.8876 19.2411 19.8711 19.1666 19.8403 19.0976C19.8096 19.0286 19.7653 18.9665 19.71 18.915L17.67 16.875L19.71 14.835C19.7653 14.7835 19.8096 14.7214 19.8403 14.6524C19.8711 14.5834 19.8876 14.5089 19.8889 14.4334C19.8903 14.3579 19.8764 14.2828 19.8481 14.2128C19.8198 14.1428 19.7777 14.0791 19.7243 14.0257C19.6709 13.9723 19.6072 13.9302 19.5372 13.9019C19.4672 13.8736 19.3921 13.8597 19.3166 13.8611C19.2411 13.8624 19.1666 13.8789 19.0976 13.9097C19.0286 13.9404 18.9665 13.9847 18.915 14.04L16.875 16.08L14.835 14.04C14.7835 13.9847 14.7214 13.9404 14.6524 13.9097C14.5834 13.8789 14.5089 13.8624 14.4334 13.8611C14.3579 13.8597 14.2828 13.8736 14.2128 13.9019C14.1428 13.9302 14.0791 13.9723 14.0257 14.0257C13.9723 14.0791 13.9302 14.1428 13.9019 14.2128C13.8736 14.2828 13.8597 14.3579 13.8611 14.4334C13.8624 14.5089 13.8789 14.5834 13.9097 14.6524C13.9404 14.7214 13.9847 14.7835 14.04 14.835L16.08 16.875L14.04 18.915C13.9847 18.9665 13.9404 19.0286 13.9097 19.0976C13.8789 19.1666 13.8624 19.2411 13.8611 19.3166C13.8597 19.3921 13.8736 19.4672 13.9019 19.5372C13.9302 19.6072 13.9723 19.6709 14.0257 19.7243C14.0791 19.7777 14.1428 19.8198 14.2128 19.8481C14.2828 19.8764 14.3579 19.8903 14.4334 19.8889C14.5089 19.8876 14.5834 19.8711 14.6524 19.8403C14.7214 19.8096 14.7835 19.7653 14.835 19.71Z" fill="black"/>
</svg>
