<svg width="24" height="24" viewBox="0 0 24 24" fill="none" xmlns="http://www.w3.org/2000/svg">
<path d="M5 6C5 5.73478 5.10536 5.48043 5.29289 5.29289C5.48043 5.10536 5.73478 5 6 5H8C8.26522 5 8.51957 4.89464 8.70711 4.70711C8.89464 4.51957 9 4.26522 9 4C9 3.73478 8.89464 3.48043 8.70711 3.29289C8.51957 3.10536 8.26522 3 8 3H6C5.20435 3 4.44129 3.31607 3.87868 3.87868C3.31607 4.44129 3 5.20435 3 6V8C3 8.26522 3.10536 8.51957 3.29289 8.70711C3.48043 8.89464 3.73478 9 4 9C4.26522 9 4.51957 8.89464 4.70711 8.70711C4.89464 8.51957 5 8.26522 5 8V6Z" fill="black"/>
<path d="M5 18C5 18.2652 5.10536 18.5196 5.29289 18.7071C5.48043 18.8946 5.73478 19 6 19H8C8.26522 19 8.51957 19.1054 8.70711 19.2929C8.89464 19.4804 9 19.7348 9 20C9 20.2652 8.89464 20.5196 8.70711 20.7071C8.51957 20.8946 8.26522 21 8 21H6C5.20435 21 4.44129 20.6839 3.87868 20.1213C3.31607 19.5587 3 18.7956 3 18V16C3 15.7348 3.10536 15.4804 3.29289 15.2929C3.48043 15.1054 3.73478 15 4 15C4.26522 15 4.51957 15.1054 4.70711 15.2929C4.89464 15.4804 5 15.7348 5 16V18Z" fill="black"/>
<path d="M18 5C18.2652 5 18.5196 5.10536 18.7071 5.29289C18.8946 5.48043 19 5.73478 19 6V8C19 8.26522 19.1054 8.51957 19.2929 8.70711C19.4804 8.89464 19.7348 9 20 9C20.2652 9 20.5196 8.89464 20.7071 8.70711C20.8946 8.51957 21 8.26522 21 8V6C21 5.20435 20.6839 4.44129 20.1213 3.87868C19.5587 3.31607 18.7956 3 18 3H16C15.7348 3 15.4804 3.10536 15.2929 3.29289C15.1054 3.48043 15 3.73478 15 4C15 4.26522 15.1054 4.51957 15.2929 4.70711C15.4804 4.89464 15.7348 5 16 5H18Z" fill="black"/>
<path d="M19 18C19 18.2652 18.8946 18.5196 18.7071 18.7071C18.5196 18.8946 18.2652 19 18 19H16C15.7348 19 15.4804 19.1054 15.2929 19.2929C15.1054 19.4804 15 19.7348 15 20C15 20.2652 15.1054 20.5196 15.2929 20.7071C15.4804 20.8946 15.7348 21 16 21H18C18.7956 21 19.5587 20.6839 20.1213 20.1213C20.6839 19.5587 21 18.7956 21 18V16C21 15.7348 20.8946 15.4804 20.7071 15.2929C20.5196 15.1054 20.2652 15 20 15C19.7348 15 19.4804 15.1054 19.2929 15.2929C19.1054 15.4804 19 15.7348 19 16V18Z" fill="black"/>
</svg>
