<svg width="24" height="24" viewBox="0 0 24 24" fill="none" xmlns="http://www.w3.org/2000/svg">
<path d="M19 10H5C3.89543 10 3 10.8954 3 12V20C3 21.1046 3.89543 22 5 22H19C20.1046 22 21 21.1046 21 20V12C21 10.8954 20.1046 10 19 10Z" stroke="black" stroke-width="2" stroke-linecap="round" stroke-linejoin="round"/>
<path d="M6 10V5C6 4.20435 6.31607 3.44129 6.87868 2.87868C7.44129 2.31607 8.20435 2 9 2H15C15.7956 2 16.5587 2.31607 17.1213 2.87868C17.6839 3.44129 18 4.20435 18 5V6" stroke="black" stroke-width="2" stroke-linecap="round" stroke-linejoin="round"/>
</svg>
