<svg width="24" height="24" viewBox="0 0 24 24" fill="none" xmlns="http://www.w3.org/2000/svg">
<path d="M9 0.416715C9.14642 0.594634 9.23612 0.812373 9.25751 1.0418C9.2789 1.27123 9.231 1.50179 9.12 1.70372C8.25279 3.29593 7.7999 5.08066 7.803 6.89372C7.803 12.9252 12.72 17.8092 18.78 17.8092C19.5705 17.8092 20.34 17.7267 21.0795 17.5692C21.3062 17.5201 21.5423 17.5389 21.7584 17.6232C21.9745 17.7075 22.1609 17.8536 22.2945 18.0432C22.4355 18.2404 22.5074 18.4786 22.499 18.7209C22.4905 18.9631 22.4023 19.1958 22.248 19.3827C21.0715 20.8279 19.5874 21.9923 17.9038 22.791C16.2201 23.5897 14.3795 24.0027 12.516 23.9997C5.601 23.9997 0 18.4287 0 11.5647C0 6.39872 3.171 1.96772 7.686 0.0897153C7.91091 -0.00533689 8.16058 -0.0248459 8.39752 0.0341188C8.63447 0.0930836 8.84588 0.227338 9 0.416715Z" fill="black"/>
</svg>
