<svg width="24" height="24" viewBox="0 0 24 24" fill="none" xmlns="http://www.w3.org/2000/svg">
<path opacity="0.5" d="M20.057 22H3.943C3.41243 22 2.89121 21.8603 2.43173 21.595C1.97224 21.3297 1.59068 20.9481 1.32537 20.4886C1.06006 20.0292 0.920352 19.508 0.920288 18.9774C0.920225 18.4468 1.05981 17.9256 1.325 17.466L9.382 3.51102C9.64733 3.05146 10.0289 2.66984 10.4885 2.40452C10.9481 2.13919 11.4694 1.99951 12 1.99951C12.5307 1.99951 13.052 2.13919 13.5115 2.40452C13.9711 2.66984 14.3527 3.05146 14.618 3.51102L22.675 17.466C22.9402 17.9256 23.0798 18.4468 23.0797 18.9774C23.0797 19.508 22.94 20.0292 22.6746 20.4886C22.4093 20.9481 22.0278 21.3297 21.5683 21.595C21.1088 21.8603 20.5876 22 20.057 22Z" fill="black"/>
<path d="M12 18C12.5523 18 13 17.5523 13 17C13 16.4477 12.5523 16 12 16C11.4477 16 11 16.4477 11 17C11 17.5523 11.4477 18 12 18Z" fill="black"/>
<path d="M12 14C11.7348 14 11.4804 13.8946 11.2929 13.7071C11.1054 13.5196 11 13.2652 11 13V9C11 8.73478 11.1054 8.48043 11.2929 8.29289C11.4804 8.10536 11.7348 8 12 8C12.2652 8 12.5196 8.10536 12.7071 8.29289C12.8946 8.48043 13 8.73478 13 9V13C13 13.2652 12.8946 13.5196 12.7071 13.7071C12.5196 13.8946 12.2652 14 12 14Z" fill="black"/>
</svg>
